<svg width="122" height="40" viewBox="0 0 122 40" fill="none" xmlns="http://www.w3.org/2000/svg">
<g clip-path="url(#clip0_326_5856)">
<path d="M73.611 28.6315C66.3329 31.6991 58.4533 33.2029 51.2955 33.2029C40.649 33.2029 30.3634 30.3157 22.0026 25.4436C21.2808 25.0225 20.7394 25.8045 21.3409 26.3458C29.0401 33.263 39.2655 37.4735 50.6338 37.4735C58.6939 37.4735 68.0772 34.8871 74.5734 30.1352C75.5959 29.3533 74.6335 28.1503 73.611 28.6315Z" fill="#8C98A4"/>
<path d="M69.5208 25.9247C68.9795 26.3457 69.0998 26.8871 69.7013 26.8269C71.7463 26.5863 76.438 26.045 77.2801 27.1277C78.1222 28.2104 76.3779 32.5412 75.5959 34.5261C75.3553 35.1276 75.8967 35.3682 76.3779 34.9472C79.8666 32.06 80.7688 25.9247 79.9869 25.0826C79.2651 24.0601 73.1899 23.3383 69.5208 25.9247Z" fill="#8C98A4"/>
<path d="M82.1523 18.5263C80.1673 17.3834 77.8215 17.0827 75.6561 17.1428L81.5508 8.72189C82.0921 8.0001 82.3928 7.5189 82.3928 7.158V4.99261C82.3928 4.57156 82.0921 4.39111 81.7312 4.39111H70.3629C70.002 4.39111 69.7614 4.69186 69.7614 4.99261V7.5189C69.7614 7.93995 70.0622 8.12039 70.4231 8.12039H76.3779L69.5208 17.8646C69.0998 18.4661 69.0998 19.1879 69.0998 19.609V22.1954C69.0998 22.6165 69.5208 22.9774 69.8817 22.7368C73.7313 20.6917 78.3628 20.8721 81.8515 22.7368C82.2726 22.9774 82.6936 22.4962 82.6936 22.1954V19.5488C82.6936 19.1278 82.5733 18.827 82.1523 18.5263Z" fill="#8C98A4"/>
<path d="M25.01 23.3384H28.4987C28.9198 23.3384 29.1604 23.0377 29.1604 22.7369V13.3536C29.1604 11.3085 29.0401 8.48144 31.5663 8.48144C34.0325 8.48144 33.6716 11.3686 33.6716 13.3536V22.7369C33.6716 23.0978 33.9723 23.3384 34.2731 23.3384H37.7618C38.1828 23.3384 38.4234 23.0377 38.4234 22.7369V13.3536C38.4234 12.331 38.3633 10.8273 38.7843 9.92503C39.1452 9.02279 39.9873 8.48144 40.8294 8.48144C41.8519 8.48144 42.6339 8.84234 42.8143 9.98518C42.9948 10.707 42.9346 12.5716 42.9346 13.2934V22.6768C42.9346 23.0377 43.2354 23.2783 43.5361 23.2783H47.0248C47.4459 23.2783 47.6865 22.9775 47.6865 22.6768V11.4889C47.6865 9.56414 47.9271 7.39875 46.7842 5.95515C45.8218 4.63186 44.1978 3.97021 42.8143 3.97021C40.8294 3.97021 38.9046 5.05291 38.0625 7.27845C37.1001 5.05291 35.7768 3.97021 33.6114 3.97021C31.5062 3.97021 29.9423 5.05291 29.1002 7.27845H29.0401V4.99276C29.0401 4.63186 28.7393 4.45141 28.4386 4.39126H25.2506C24.8296 4.39126 24.589 4.69201 24.589 4.99276V22.6768C24.4085 23.0377 24.6491 23.2783 25.01 23.3384Z" fill="#8C98A4"/>
<path d="M92.1371 4.03027C87.1447 4.03027 84.3778 8.36105 84.3778 13.8347C84.3778 19.3083 87.1447 23.6992 92.1371 23.6992C96.9491 23.6992 100.017 19.3684 100.017 14.0151C100.077 8.48135 97.31 4.03027 92.1371 4.03027ZM92.1371 20.0301C89.4304 20.0301 89.4304 15.3986 89.4304 13.2332C89.4304 11.0678 89.6108 7.63926 92.1371 7.63926C93.2799 7.63926 94.0017 8.12045 94.3626 9.3836C94.7837 10.767 94.8438 12.5715 94.8438 14.0753C94.9641 16.361 94.8438 20.0301 92.1371 20.0301Z" fill="#8C98A4"/>
<path d="M111.866 4.03027C109.46 4.03027 108.137 5.23327 107.175 7.63926H107.114V4.93252C107.054 4.63177 106.753 4.45132 106.513 4.45132H103.325C102.964 4.45132 102.723 4.75207 102.663 4.99267V22.6767C102.663 23.0376 102.964 23.2782 103.265 23.2782H106.693C107.114 23.2782 107.355 22.9774 107.355 22.6767V13.173C107.355 11.97 107.415 10.8873 107.896 9.80464C108.317 8.96255 109.099 8.4212 109.881 8.4212C112.287 8.4212 112.047 11.2482 112.047 13.173V22.797C112.107 23.0977 112.347 23.3383 112.648 23.3383H116.137C116.498 23.3383 116.738 23.0977 116.798 22.797V11.6693C116.798 9.92494 116.798 7.57911 115.896 6.19566C114.934 4.57162 113.43 4.03027 111.866 4.03027Z" fill="#8C98A4"/>
<path d="M60.7991 11.3686C58.8142 11.6092 56.2277 11.7896 54.3029 12.5716C52.1376 13.534 50.6338 15.3986 50.6338 18.2256C50.6338 21.8346 52.8593 23.579 55.8067 23.579C58.2728 23.579 59.5961 23.0376 61.5209 21.0527C62.1224 21.9549 62.363 22.376 63.5058 23.3384C63.8066 23.4587 64.0472 23.4587 64.3479 23.2782C65.0096 22.6767 66.3329 21.594 66.9945 20.9925C67.2953 20.7519 67.2351 20.391 66.9945 20.0903C66.393 19.188 65.7314 18.5264 65.7314 16.9023V11.549C65.7314 9.26333 65.9118 7.15809 64.2276 5.59419C62.9645 4.33105 60.6788 3.84985 58.9946 3.84985C55.6864 3.84985 52.0774 5.05285 51.2955 9.08288C51.2353 9.50393 51.5361 9.74452 51.7766 9.80467L55.0247 10.2257C55.3856 10.2257 55.5661 9.86482 55.6262 9.62422C55.927 8.24078 57.0698 7.57913 58.3931 7.57913C59.1149 7.57913 59.8969 7.87988 60.3781 8.48138C60.8593 9.20318 60.7991 10.1656 60.7991 11.0077V11.3686ZM60.0773 18.5264C59.536 19.4888 58.6939 20.0903 57.6713 20.0903C56.348 20.0903 55.5661 19.0677 55.5661 17.564C55.5661 14.6167 58.2127 14.0753 60.739 14.0753V14.7971C60.7991 16.2407 60.7991 17.3835 60.0773 18.5264Z" fill="#8C98A4"/>
<path d="M21.7018 20.0903C21.1003 19.188 20.4387 18.5264 20.4387 16.9023V11.549C20.4387 9.26333 20.6191 7.15809 18.9349 5.59419C17.6116 4.33105 15.3861 3.84985 13.7019 3.84985C10.3937 3.84985 6.78467 5.05285 6.00273 9.08288C5.94258 9.50393 6.24333 9.74452 6.48393 9.80467L9.85231 10.1656C10.2132 10.1656 10.3937 9.80467 10.4538 9.56407C10.7546 8.18063 11.8974 7.51899 13.2808 7.51899C14.0026 7.51899 14.7846 7.81973 15.2658 8.42123C15.747 9.14303 15.6868 10.1054 15.6868 10.9475V11.3686C13.6417 11.6092 11.0553 11.7896 9.13051 12.5716C6.96512 13.534 5.46138 15.3986 5.46138 18.2256C5.46138 21.8346 7.68692 23.579 10.6343 23.579C13.1004 23.579 14.4237 23.0376 16.3485 21.0527C16.95 21.9549 17.1906 22.376 18.3334 23.3384C18.6342 23.4587 18.8748 23.4587 19.1755 23.2782C19.8372 22.6767 21.1605 21.594 21.8221 20.9925C22.0025 20.7519 21.9424 20.391 21.7018 20.0903ZM14.965 18.5264C14.4237 19.4888 13.5816 20.0903 12.559 20.0903C11.2358 20.0903 10.514 19.0677 10.514 17.564C10.514 14.6167 13.1605 14.0753 15.6868 14.0753V14.7971C15.5665 16.2407 15.6267 17.3835 14.965 18.5264Z" fill="#8C98A4"/>
</g>
<defs>
<clipPath id="clip0_326_5856">
<rect width="120.54" height="40" fill="white" transform="translate(0.889999)"/>
</clipPath>
</defs>
</svg>
