<svg width="32" height="33" viewBox="0 0 32 33" fill="none" xmlns="http://www.w3.org/2000/svg">
<path d="M11.362 18.9899C11.362 19.9159 10.606 20.6709 9.681 20.6709C8.756 20.6709 8 19.9159 8 18.9909C8 18.0659 8.756 17.3099 9.68 17.3099H11.362V18.9899ZM12.208 18.9899C12.208 18.0659 12.964 17.3099 13.889 17.3099C14.814 17.3099 15.57 18.0659 15.57 18.9899V23.1999C15.57 24.1239 14.814 24.8799 13.89 24.8799C13.4445 24.8791 13.0174 24.7019 12.7022 24.3871C12.387 24.0722 12.2093 23.6454 12.208 23.1999V18.9899ZM13.89 12.2419C12.964 12.2419 12.208 11.4859 12.208 10.5609C12.208 9.63588 12.964 8.87988 13.89 8.87988C14.816 8.87988 15.57 9.63588 15.57 10.5599V12.2419H13.89ZM13.89 13.0879C14.814 13.0879 15.57 13.8439 15.57 14.7689C15.57 15.6939 14.814 16.4499 13.89 16.4499H9.68C8.757 16.4499 8 15.6939 8 14.7699C8 13.8439 8.756 13.0879 9.68 13.0879H13.89ZM20.639 14.7699C20.639 13.8439 21.394 13.0879 22.319 13.0879C23.244 13.0879 24 13.8439 24 14.7689C24 15.6939 23.244 16.4499 22.32 16.4499H20.639V14.7699ZM19.791 14.7699C19.791 15.6939 19.036 16.4499 18.111 16.4499C17.6657 16.4488 17.2389 16.2715 16.9239 15.9567C16.6089 15.6419 16.4313 15.2152 16.43 14.7699V10.5599C16.43 9.63688 17.186 8.87988 18.11 8.87988C19.036 8.87988 19.791 9.63588 19.791 10.5599V14.7699ZM18.11 21.5179C19.036 21.5179 19.792 22.2739 19.792 23.1989C19.792 24.1239 19.036 24.8799 18.11 24.8799C17.184 24.8799 16.429 24.1239 16.429 23.1999V21.5179H18.11ZM18.11 20.6709C17.186 20.6709 16.43 19.9159 16.43 18.9909C16.43 18.0659 17.186 17.3099 18.11 17.3099H22.32C23.244 17.3099 24 18.0659 24 18.9899C24 19.9159 23.244 20.6709 22.32 20.6709H18.11Z" fill="white"/>
</svg>
