<svg width="81" height="81" viewBox="0 0 81 81" fill="none" xmlns="http://www.w3.org/2000/svg">
<mask id="path-1-inside-1_326_5640" fill="white">
<path d="M0.274414 35.9442C0.274414 16.5247 16.0171 0.781982 35.4367 0.781982H52.3268C67.7618 0.781982 80.2744 13.2945 80.2744 28.7296V46.8426C80.2744 65.5868 65.0792 80.782 46.335 80.782H45.1122C20.349 80.782 0.274414 60.7074 0.274414 35.9442Z"/>
</mask>
<path d="M0.274414 35.9442C0.274414 16.5247 16.0171 0.781982 35.4367 0.781982H52.3268C67.7618 0.781982 80.2744 13.2945 80.2744 28.7296V46.8426C80.2744 65.5868 65.0792 80.782 46.335 80.782H45.1122C20.349 80.782 0.274414 60.7074 0.274414 35.9442Z" fill="#FF090D" fill-opacity="0.07"/>
<path d="M35.4367 1.78198H52.3268V-0.218018H35.4367V1.78198ZM79.2744 28.7296V46.8426H81.2744V28.7296H79.2744ZM46.335 79.782H45.1122V81.782H46.335V79.782ZM45.1122 79.782C20.9012 79.782 1.27441 60.1552 1.27441 35.9442H-0.725586C-0.725586 61.2597 19.7967 81.782 45.1122 81.782V79.782ZM79.2744 46.8426C79.2744 65.0345 64.5269 79.782 46.335 79.782V81.782C65.6315 81.782 81.2744 66.1391 81.2744 46.8426H79.2744ZM52.3268 1.78198C67.2096 1.78198 79.2744 13.8468 79.2744 28.7296H81.2744C81.2744 12.7423 68.3141 -0.218018 52.3268 -0.218018V1.78198ZM35.4367 -0.218018C15.4648 -0.218018 -0.725586 15.9724 -0.725586 35.9442H1.27441C1.27441 17.0769 16.5694 1.78198 35.4367 1.78198V-0.218018Z" fill="#E5E7EB" mask="url(#path-1-inside-1_326_5640)"/>
<path d="M46.9744 40.782L56.1078 45.9986C56.3643 46.144 56.5776 46.3548 56.726 46.6095C56.8745 46.8643 56.9527 47.1538 56.9527 47.4486C56.9527 47.7435 56.8745 48.033 56.726 48.2878C56.5776 48.5425 56.3643 48.7533 56.1078 48.8987L41.9411 57.0153C41.4344 57.3079 40.8596 57.4619 40.2744 57.4619C39.6893 57.4619 39.1145 57.3079 38.6078 57.0153L24.4411 48.8987C24.1846 48.7533 23.9713 48.5425 23.8228 48.2878C23.6744 48.033 23.5962 47.7435 23.5962 47.4486C23.5962 47.1538 23.6744 46.8643 23.8228 46.6095C23.9713 46.3548 24.1846 46.144 24.4411 45.9986L33.5744 40.782" stroke="#FF090D" stroke-width="3.33333" stroke-linecap="round" stroke-linejoin="round"/>
<path d="M41.9411 43.682C41.4344 43.9745 40.8596 44.1285 40.2744 44.1285C39.6893 44.1285 39.1145 43.9745 38.6078 43.682L24.4411 35.5653C24.1846 35.4199 23.9713 35.2091 23.8228 34.9544C23.6744 34.6997 23.5962 34.4101 23.5962 34.1153C23.5962 33.8205 23.6744 33.5309 23.8228 33.2762C23.9713 33.0215 24.1846 32.8107 24.4411 32.6653L38.6078 24.5486C39.1145 24.2561 39.6893 24.1021 40.2744 24.1021C40.8596 24.1021 41.4344 24.2561 41.9411 24.5486L56.1078 32.6653C56.3643 32.8107 56.5776 33.0215 56.726 33.2762C56.8745 33.5309 56.9527 33.8205 56.9527 34.1153C56.9527 34.4101 56.8745 34.6997 56.726 34.9544C56.5776 35.2091 56.3643 35.4199 56.1078 35.5653L41.9411 43.682Z" stroke="#FF090D" stroke-width="3.33333" stroke-linecap="round" stroke-linejoin="round"/>
</svg>
