<svg width="32" height="33" viewBox="0 0 32 33" fill="none" xmlns="http://www.w3.org/2000/svg">
<path d="M16.01 8.87988C11.59 8.87988 8.01001 12.4599 8.01001 16.8799C8.01001 20.4199 10.3 23.4099 13.48 24.4699C13.88 24.5399 14.03 24.2999 14.03 24.0899C14.03 23.8999 14.02 23.2699 14.02 22.5999C12.01 22.9699 11.49 22.1099 11.33 21.6599C11.24 21.4299 10.85 20.7199 10.51 20.5299C10.23 20.3799 9.83001 20.0099 10.5 19.9999C11.13 19.9899 11.58 20.5799 11.73 20.8199C12.45 22.0299 13.6 21.6899 14.06 21.4799C14.13 20.9599 14.34 20.6099 14.57 20.4099C12.79 20.2099 10.93 19.5199 10.93 16.4599C10.93 15.5899 11.24 14.8699 11.75 14.3099C11.67 14.1099 11.39 13.2899 11.83 12.1899C11.83 12.1899 12.5 11.9799 14.03 13.0099C14.67 12.8299 15.35 12.7399 16.03 12.7399C16.71 12.7399 17.39 12.8299 18.03 13.0099C19.56 11.9699 20.23 12.1899 20.23 12.1899C20.67 13.2899 20.39 14.1099 20.31 14.3099C20.82 14.8699 21.13 15.5799 21.13 16.4599C21.13 19.5299 19.26 20.2099 17.48 20.4099C17.77 20.6599 18.02 21.1399 18.02 21.8899C18.02 22.9599 18.01 23.8199 18.01 24.0899C18.01 24.2999 18.16 24.5499 18.56 24.4699C20.1482 23.9339 21.5283 22.9132 22.506 21.5516C23.4837 20.1901 24.0097 18.5561 24.01 16.8799C24.01 12.4599 20.43 8.87988 16.01 8.87988Z" fill="white"/>
</svg>
