<svg width="17" height="17" viewBox="0 0 17 17" fill="none" xmlns="http://www.w3.org/2000/svg">
<path d="M15.565 7.43792C15.6583 7.97488 15.7048 8.51892 15.704 9.06392C15.704 11.4979 14.834 13.5559 13.32 14.9489H13.322C11.998 16.1719 10.178 16.8799 8.02002 16.8799C5.89829 16.8799 3.86346 16.0371 2.36317 14.5368C0.862874 13.0365 0.0200195 11.0017 0.0200195 8.87992C0.0200195 6.75819 0.862874 4.72336 2.36317 3.22307C3.86346 1.72278 5.89829 0.879922 8.02002 0.879922C10.006 0.856664 11.9239 1.60276 13.372 2.96192L11.088 5.24592C10.2624 4.4589 9.16052 4.02791 8.02002 4.04592C5.93302 4.04592 4.16002 5.45392 3.52802 7.34992C3.19293 8.34343 3.19293 9.41942 3.52802 10.4129H3.53102C4.16602 12.3059 5.93602 13.7139 8.02302 13.7139C9.10102 13.7139 10.027 13.4379 10.745 12.9499H10.742C11.1589 12.6737 11.5156 12.3159 11.7904 11.8981C12.0652 11.4803 12.2525 11.0111 12.341 10.5189H8.02002V7.43892L15.565 7.43792Z" fill="white"/>
</svg>
