<svg width="121" height="40" viewBox="0 0 121 40" fill="none" xmlns="http://www.w3.org/2000/svg">
<g clip-path="url(#clip0_326_5868)">
<g clip-path="url(#clip1_326_5868)">
<path d="M31.2071 14.6769H17.6734V18.6467H27.2974C26.8162 24.2407 22.1245 26.7068 17.7336 26.7068C12.0795 26.7068 7.14721 22.2557 7.14721 16.0603C7.14721 9.98518 11.8389 5.29351 17.7336 5.29351C22.3049 5.29351 24.9515 8.18069 24.9515 8.18069L27.7184 5.29351C27.7184 5.29351 24.1094 1.32362 17.5531 1.32362C9.1923 1.26348 2.75629 8.30099 2.75629 15.94C2.75629 23.3986 8.83141 30.6767 17.7937 30.6767C25.6733 30.6767 31.4477 25.3234 31.4477 17.3234C31.4477 15.6393 31.2071 14.6769 31.2071 14.6769Z" fill="#8C98A4"/>
<path d="M42.2145 11.7295C36.6807 11.7295 32.7108 16.0603 32.7108 21.1128C32.7108 26.2857 36.5604 30.6766 42.3348 30.6766C47.5678 30.6766 51.7783 26.7669 51.7783 21.2331C51.7181 14.9776 46.7859 11.7295 42.2145 11.7295ZM42.2746 15.5189C44.9814 15.5189 47.5678 17.7445 47.5678 21.2331C47.5678 24.7218 45.0415 26.9474 42.2746 26.9474C39.2672 26.9474 36.9213 24.5414 36.9213 21.173C36.8612 17.9249 39.207 15.5189 42.2746 15.5189Z" fill="#8C98A4"/>
<path d="M62.906 11.7295C57.3722 11.7295 53.4023 16.0603 53.4023 21.1128C53.4023 26.2857 57.2519 30.6766 63.0263 30.6766C68.2593 30.6766 72.4698 26.7669 72.4698 21.2331C72.4096 14.9776 67.4774 11.7295 62.906 11.7295ZM62.9661 15.5189C65.6729 15.5189 68.2593 17.7445 68.2593 21.2331C68.2593 24.7218 65.733 26.9474 62.9661 26.9474C59.9587 26.9474 57.6128 24.5414 57.6128 21.173C57.5527 17.9249 59.8985 15.5189 62.9661 15.5189Z" fill="#8C98A4"/>
<path d="M83.1764 11.7898C78.0637 11.7898 74.0938 16.2409 74.0938 21.2333C74.0938 26.8874 78.7254 30.7369 83.0561 30.7369C85.7629 30.7369 87.1463 29.7144 88.2892 28.4513V30.3159C88.2892 33.564 86.3042 35.5489 83.2967 35.5489C80.4096 35.5489 78.966 33.3835 78.4246 32.1805L74.7555 33.6843C76.0186 36.391 78.6051 39.2181 83.2366 39.2181C88.2892 39.2181 92.1388 36.0301 92.1388 29.3535V12.3311H88.1689V13.9552C87.0862 12.6319 85.402 11.7898 83.1764 11.7898ZM83.5373 15.5191C86.0035 15.5191 88.5899 17.6845 88.5899 21.2934C88.5899 25.0227 86.0636 27.0077 83.4772 27.0077C80.7705 27.0077 78.2442 24.7821 78.2442 21.3536C78.3043 17.6243 80.8908 15.5191 83.5373 15.5191Z" fill="#8C98A4"/>
<path d="M109.943 11.7295C105.131 11.7295 101.101 15.5189 101.101 21.173C101.101 27.1278 105.612 30.6766 110.364 30.6766C114.334 30.6766 116.86 28.4511 118.304 26.5263L114.996 24.3008C114.154 25.6241 112.71 26.8872 110.364 26.8872C107.718 26.8872 106.515 25.4436 105.733 24L118.424 18.7069L117.763 17.143C116.499 14.2558 113.672 11.7295 109.943 11.7295ZM110.063 15.3986C111.808 15.3986 113.011 16.3009 113.612 17.4437L105.191 20.9925C104.71 18.2257 107.357 15.3986 110.063 15.3986Z" fill="#8C98A4"/>
<path d="M95.0861 30.1353H99.2364V2.22583H95.0861V30.1353Z" fill="#8C98A4"/>
</g>
</g>
<defs>
<clipPath id="clip0_326_5868">
<rect width="120.54" height="40" fill="white" transform="translate(0.230011)"/>
</clipPath>
<clipPath id="clip1_326_5868">
<rect width="120.54" height="39.9996" fill="white" transform="translate(0.230011 0.000244141)"/>
</clipPath>
</defs>
</svg>
