<svg width="38" height="31" viewBox="0 0 38 31" fill="none" xmlns="http://www.w3.org/2000/svg">
<path d="M32.75 29.75V14.0469C32.7472 13.8739 32.7098 13.7032 32.64 13.5449C32.5703 13.3866 32.4695 13.2438 32.3437 13.125L19.8281 1.76565C19.6003 1.55593 19.3019 1.43951 18.9922 1.43951C18.6825 1.43951 18.3841 1.55593 18.1562 1.76565L5.65625 13.125C5.52752 13.2415 5.4248 13.3838 5.3548 13.5426C5.2848 13.7015 5.24909 13.8733 5.25 14.0469V29.75M1.5 29.75H36.5M22.75 29.75V21C22.75 20.6685 22.6183 20.3506 22.3839 20.1161C22.1495 19.8817 21.8315 19.75 21.5 19.75H16.5C16.1685 19.75 15.8505 19.8817 15.6161 20.1161C15.3817 20.3506 15.25 20.6685 15.25 21V29.75" stroke="#F06769" stroke-width="2" stroke-linecap="round" stroke-linejoin="round"/>
</svg>
