<svg width="81" height="81" viewBox="0 0 81 81" fill="none" xmlns="http://www.w3.org/2000/svg">
<mask id="path-1-inside-1_326_5604" fill="white">
<path d="M0.274414 35.9442C0.274414 16.5247 16.0171 0.781982 35.4367 0.781982H52.3268C67.7618 0.781982 80.2744 13.2945 80.2744 28.7296V46.8426C80.2744 65.5868 65.0792 80.782 46.335 80.782H45.1122C20.349 80.782 0.274414 60.7074 0.274414 35.9442Z"/>
</mask>
<path d="M0.274414 35.9442C0.274414 16.5247 16.0171 0.781982 35.4367 0.781982H52.3268C67.7618 0.781982 80.2744 13.2945 80.2744 28.7296V46.8426C80.2744 65.5868 65.0792 80.782 46.335 80.782H45.1122C20.349 80.782 0.274414 60.7074 0.274414 35.9442Z" fill="#FF090D" fill-opacity="0.07"/>
<path d="M35.4367 1.78198H52.3268V-0.218018H35.4367V1.78198ZM79.2744 28.7296V46.8426H81.2744V28.7296H79.2744ZM46.335 79.782H45.1122V81.782H46.335V79.782ZM45.1122 79.782C20.9012 79.782 1.27441 60.1552 1.27441 35.9442H-0.725586C-0.725586 61.2597 19.7967 81.782 45.1122 81.782V79.782ZM79.2744 46.8426C79.2744 65.0345 64.5269 79.782 46.335 79.782V81.782C65.6315 81.782 81.2744 66.1391 81.2744 46.8426H79.2744ZM52.3268 1.78198C67.2096 1.78198 79.2744 13.8468 79.2744 28.7296H81.2744C81.2744 12.7423 68.3141 -0.218018 52.3268 -0.218018V1.78198ZM35.4367 -0.218018C15.4648 -0.218018 -0.725586 15.9724 -0.725586 35.9442H1.27441C1.27441 17.0769 16.5694 1.78198 35.4367 1.78198V-0.218018Z" fill="#E5E7EB" mask="url(#path-1-inside-1_326_5604)"/>
<path d="M45.2744 44.1154C45.6077 42.4487 46.4411 41.282 47.7744 39.9487C49.4411 38.4487 50.2744 36.282 50.2744 34.1154C50.2744 31.4632 49.2208 28.9197 47.3455 27.0443C45.4701 25.1689 42.9266 24.1154 40.2744 24.1154C37.6222 24.1154 35.0787 25.1689 33.2033 27.0443C31.328 28.9197 30.2744 31.4632 30.2744 34.1154C30.2744 35.782 30.6077 37.782 32.7744 39.9487C33.9411 41.1154 34.9411 42.4487 35.2744 44.1154" stroke="#FF090D" stroke-width="3.33333" stroke-linecap="round" stroke-linejoin="round"/>
<path d="M35.2744 50.782H45.2744" stroke="#FF090D" stroke-width="3.33333" stroke-linecap="round" stroke-linejoin="round"/>
<path d="M36.9411 57.4486H43.6078" stroke="#FF090D" stroke-width="3.33333" stroke-linecap="round" stroke-linejoin="round"/>
</svg>
