<svg width="122" height="40" viewBox="0 0 122 40" fill="none" xmlns="http://www.w3.org/2000/svg">
<g clip-path="url(#clip0_326_5877)">
<g clip-path="url(#clip1_326_5877)">
<g clip-path="url(#clip2_326_5877)">
<path d="M48.9103 12.752C46.8051 12.752 44.4592 13.7143 43.0156 15.6391V13.0527H38.0834V31.0976H43.0156V20.812C43.0156 18.9474 44.4592 17.0226 47.1058 17.0226C49.1509 17.0226 51.2562 18.4662 51.2562 20.812V31.0976H56.1884V19.9098C56.2486 15.7594 53.3012 12.752 48.9103 12.752Z" fill="#8C98A4"/>
<path d="M91.4963 13.0527L87.0452 25.3233L82.534 13.0527H76.8799L84.3385 31.0976H89.752L97.1504 13.0527H91.4963Z" fill="#8C98A4"/>
<path d="M34.1135 15.6993C32.4293 13.7745 29.9632 12.752 26.9557 12.752C21.4821 12.752 17.3919 16.782 17.3919 22.0752C17.3919 27.5488 21.5422 31.3984 27.4971 31.3984C30.8654 31.3984 34.294 29.8345 35.918 27.9698L32.7902 25.5638C30.7451 27.0676 29.5421 27.4886 27.6174 27.4886C25.9332 27.4886 24.5497 26.9473 23.6475 26.045L36.3391 20.812C36.0383 18.7669 35.2564 17.0226 34.1135 15.6993ZM22.264 22.797C22.0234 20.9323 22.5046 19.4887 23.2866 18.4662C24.1287 17.3233 25.452 16.6617 27.076 16.6617C28.8805 16.6617 30.2038 17.6842 30.9256 19.188L22.264 22.797Z" fill="#8C98A4"/>
<path d="M5.72286 7.63916H0.670288V31.0975H16.9709V26.5262H5.72286V7.63916Z" fill="#8C98A4"/>
<path d="M106.173 12.752C100.699 12.752 96.4286 16.8421 96.4286 22.0752C96.4286 27.3683 100.699 31.3984 106.113 31.3984C111.586 31.3984 115.857 27.3082 115.857 22.0752C115.797 16.782 111.586 12.752 106.173 12.752ZM106.173 27.1277C103.466 27.1277 101.301 24.9022 101.301 22.015C101.301 19.0075 103.286 16.9023 106.053 16.9023C108.759 16.9023 110.925 19.1278 110.925 22.015C110.925 25.0225 108.94 27.1277 106.173 27.1277Z" fill="#8C98A4"/>
<path d="M67.9778 12.752C62.5042 12.752 58.2336 16.8421 58.2336 22.0752C58.2336 27.3683 62.5042 31.3984 67.9177 31.3984C73.3913 31.3984 77.6619 27.3082 77.6619 22.0752C77.6619 16.782 73.3913 12.752 67.9778 12.752ZM67.9778 27.1277C65.2711 27.1277 63.1057 24.9022 63.1057 22.015C63.1057 19.0075 65.0906 16.9023 67.8575 16.9023C70.5643 16.9023 72.7297 19.1278 72.7297 22.015C72.7297 25.0225 70.7447 27.1277 67.9778 27.1277Z" fill="#8C98A4"/>
<path d="M115.677 28.932H116.519V31.0974H117V28.932H117.782V28.511H115.677V28.932Z" fill="#8C98A4"/>
<path d="M120.428 28.511L119.646 29.714L118.864 28.511H118.323V31.0974H118.804V29.2328L119.646 30.4959H119.707L120.489 29.2328V31.0974H120.97V28.511H120.428Z" fill="#8C98A4"/>
</g>
</g>
</g>
<defs>
<clipPath id="clip0_326_5877">
<rect width="120.54" height="40" fill="white" transform="translate(0.549988)"/>
</clipPath>
<clipPath id="clip1_326_5877">
<rect width="120.54" height="40" fill="white" transform="translate(0.549988)"/>
</clipPath>
<clipPath id="clip2_326_5877">
<rect width="120.54" height="39.9996" fill="white" transform="translate(0.549988 0.000244141)"/>
</clipPath>
</defs>
</svg>
