<svg width="81" height="81" viewBox="0 0 81 81" fill="none" xmlns="http://www.w3.org/2000/svg">
<mask id="path-1-inside-1_326_5632" fill="white">
<path d="M0.274414 35.9442C0.274414 16.5247 16.0171 0.781982 35.4367 0.781982H52.3268C67.7618 0.781982 80.2744 13.2945 80.2744 28.7296V46.8426C80.2744 65.5868 65.0792 80.782 46.335 80.782H45.1122C20.349 80.782 0.274414 60.7074 0.274414 35.9442Z"/>
</mask>
<path d="M0.274414 35.9442C0.274414 16.5247 16.0171 0.781982 35.4367 0.781982H52.3268C67.7618 0.781982 80.2744 13.2945 80.2744 28.7296V46.8426C80.2744 65.5868 65.0792 80.782 46.335 80.782H45.1122C20.349 80.782 0.274414 60.7074 0.274414 35.9442Z" fill="#FF090D" fill-opacity="0.07"/>
<path d="M35.4367 1.78198H52.3268V-0.218018H35.4367V1.78198ZM79.2744 28.7296V46.8426H81.2744V28.7296H79.2744ZM46.335 79.782H45.1122V81.782H46.335V79.782ZM45.1122 79.782C20.9012 79.782 1.27441 60.1552 1.27441 35.9442H-0.725586C-0.725586 61.2597 19.7967 81.782 45.1122 81.782V79.782ZM79.2744 46.8426C79.2744 65.0345 64.5269 79.782 46.335 79.782V81.782C65.6315 81.782 81.2744 66.1391 81.2744 46.8426H79.2744ZM52.3268 1.78198C67.2096 1.78198 79.2744 13.8468 79.2744 28.7296H81.2744C81.2744 12.7423 68.3141 -0.218018 52.3268 -0.218018V1.78198ZM35.4367 -0.218018C15.4648 -0.218018 -0.725586 15.9724 -0.725586 35.9442H1.27441C1.27441 17.0769 16.5694 1.78198 35.4367 1.78198V-0.218018Z" fill="#E5E7EB" mask="url(#path-1-inside-1_326_5632)"/>
<path d="M27.7744 48.282C25.2744 50.382 24.4411 56.6154 24.4411 56.6154C24.4411 56.6154 30.6744 55.782 32.7744 53.282C33.9578 51.882 33.9411 49.732 32.6244 48.432C31.9766 47.8137 31.1233 47.4564 30.2281 47.4287C29.333 47.4011 28.4592 47.7049 27.7744 48.282Z" stroke="#FF090D" stroke-width="3.33333" stroke-linecap="round" stroke-linejoin="round"/>
<path d="M40.2744 45.7819L35.2744 40.7819C36.1613 38.481 37.2781 36.2754 38.6077 34.1986C40.5497 31.0936 43.2538 28.537 46.4627 26.7721C49.6717 25.0072 53.2789 24.0926 56.9411 24.1153C56.9411 28.6486 55.6411 36.6153 46.9411 42.4486C44.8359 43.7798 42.6025 44.8965 40.2744 45.7819Z" stroke="#FF090D" stroke-width="3.33333" stroke-linecap="round" stroke-linejoin="round"/>
<path d="M35.2744 40.782H26.9411C26.9411 40.782 27.8578 35.732 30.2744 34.1153C32.9744 32.3153 38.6078 34.1153 38.6078 34.1153" stroke="#FF090D" stroke-width="3.33333" stroke-linecap="round" stroke-linejoin="round"/>
<path d="M40.2744 45.7819V54.1153C40.2744 54.1153 45.3244 53.1986 46.9411 50.7819C48.7411 48.0819 46.9411 42.4486 46.9411 42.4486" stroke="#FF090D" stroke-width="3.33333" stroke-linecap="round" stroke-linejoin="round"/>
</svg>
