<svg width="81" height="81" viewBox="0 0 81 81" fill="none" xmlns="http://www.w3.org/2000/svg">
<mask id="path-1-inside-1_326_5618" fill="white">
<path d="M0.274414 35.9442C0.274414 16.5247 16.0171 0.781982 35.4367 0.781982H52.3268C67.7618 0.781982 80.2744 13.2945 80.2744 28.7296V46.8426C80.2744 65.5868 65.0792 80.782 46.335 80.782H45.1122C20.349 80.782 0.274414 60.7074 0.274414 35.9442Z"/>
</mask>
<path d="M0.274414 35.9442C0.274414 16.5247 16.0171 0.781982 35.4367 0.781982H52.3268C67.7618 0.781982 80.2744 13.2945 80.2744 28.7296V46.8426C80.2744 65.5868 65.0792 80.782 46.335 80.782H45.1122C20.349 80.782 0.274414 60.7074 0.274414 35.9442Z" fill="#FF090D" fill-opacity="0.07"/>
<path d="M35.4367 1.78198H52.3268V-0.218018H35.4367V1.78198ZM79.2744 28.7296V46.8426H81.2744V28.7296H79.2744ZM46.335 79.782H45.1122V81.782H46.335V79.782ZM45.1122 79.782C20.9012 79.782 1.27441 60.1552 1.27441 35.9442H-0.725586C-0.725586 61.2597 19.7967 81.782 45.1122 81.782V79.782ZM79.2744 46.8426C79.2744 65.0345 64.5269 79.782 46.335 79.782V81.782C65.6315 81.782 81.2744 66.1391 81.2744 46.8426H79.2744ZM52.3268 1.78198C67.2096 1.78198 79.2744 13.8468 79.2744 28.7296H81.2744C81.2744 12.7423 68.3141 -0.218018 52.3268 -0.218018V1.78198ZM35.4367 -0.218018C15.4648 -0.218018 -0.725586 15.9724 -0.725586 35.9442H1.27441C1.27441 17.0769 16.5694 1.78198 35.4367 1.78198V-0.218018Z" fill="#E5E7EB" mask="url(#path-1-inside-1_326_5618)"/>
<path d="M40.2745 24.1154L56.9411 34.9487V46.6154L40.2745 57.4487L23.6078 46.6154V34.9487L40.2745 24.1154Z" stroke="#FF090D" stroke-width="3.33333" stroke-linecap="round" stroke-linejoin="round"/>
<path d="M40.2744 57.4487V46.6154" stroke="#FF090D" stroke-width="3.33333" stroke-linecap="round" stroke-linejoin="round"/>
<path d="M56.9411 34.9486L40.2745 46.6153L23.6078 34.9486" stroke="#FF090D" stroke-width="3.33333" stroke-linecap="round" stroke-linejoin="round"/>
<path d="M23.6078 46.6153L40.2745 34.9486L56.9411 46.6153" stroke="#FF090D" stroke-width="3.33333" stroke-linecap="round" stroke-linejoin="round"/>
<path d="M40.2744 24.1154V34.9487" stroke="#FF090D" stroke-width="3.33333" stroke-linecap="round" stroke-linejoin="round"/>
</svg>
