<svg width="122" height="40" viewBox="0 0 122 40" fill="none" xmlns="http://www.w3.org/2000/svg">
<g clip-path="url(#clip0_326_5889)">
<g clip-path="url(#clip1_326_5889)">
<g clip-path="url(#clip2_326_5889)">
<path d="M98.2123 13.1129C97.2499 12.0302 95.5657 11.4287 93.3402 11.4287H86.6635C86.1823 11.4287 85.8214 11.7896 85.7613 12.2107L83.0546 29.2932C82.9944 29.6541 83.235 29.9548 83.5959 29.9548H87.0244C87.3252 29.9548 87.6259 29.7142 87.6861 29.4135L88.468 24.6015C88.5282 24.1804 88.9492 23.8195 89.3703 23.8195H91.4755C95.8664 23.8195 98.3927 21.7143 99.0544 17.5038C99.3551 15.579 99.0544 14.1354 98.2123 13.1129ZM94.1221 17.6843C93.7612 20.0903 91.9567 20.0903 90.1522 20.0903H89.1297L89.8515 15.6392C89.9116 15.3986 90.1522 15.158 90.3928 15.158H90.874C92.077 15.158 93.2199 15.158 93.8214 15.8196C94.1221 16.2407 94.2424 16.8422 94.1221 17.6843Z" fill="#8C98A4"/>
<path d="M113.25 17.6241H110.062C109.761 17.6241 109.581 17.8046 109.52 18.1053L109.4 19.0076L109.159 18.7068C108.498 17.6843 106.934 17.3835 105.37 17.3835C101.821 17.3835 98.8137 20.0301 98.2724 23.8196C97.9716 25.6842 98.3927 27.4887 99.4754 28.6917C100.438 29.8345 101.821 30.3157 103.505 30.3157C106.332 30.3157 107.896 28.5112 107.896 28.5112L107.776 29.4135C107.716 29.7744 107.957 30.0751 108.317 30.0751H111.205C111.686 30.0751 112.047 29.7142 112.107 29.2932L113.851 18.4061C113.851 17.9249 113.611 17.6241 113.25 17.6241ZM108.799 23.8196C108.498 25.6241 107.054 26.8872 105.19 26.8872C104.287 26.8872 103.505 26.5864 103.024 26.0451C102.543 25.5038 102.363 24.6617 102.543 23.8196C102.844 22.0151 104.287 20.7519 106.092 20.7519C106.994 20.7519 107.716 21.0527 108.197 21.594C108.738 22.1354 108.979 22.9173 108.799 23.8196Z" fill="#8C98A4"/>
<path d="M120.648 11.4287H117.58C117.28 11.4287 117.099 11.6092 117.039 11.9099L114.332 29.2932C114.272 29.6541 114.513 29.9548 114.874 29.9548H117.641C118.122 29.9548 118.483 29.6541 118.543 29.1729L121.189 12.0904C121.25 11.7295 120.949 11.4287 120.648 11.4287Z" fill="#8C98A4"/>
<path d="M50.7542 13.1129C49.7918 12.0302 48.1076 11.4287 45.882 11.4287H39.2054C38.7242 11.4287 38.3633 11.7896 38.3032 12.2107L35.5964 29.2932C35.5363 29.6541 35.7769 29.9548 36.1378 29.9548H39.3257C39.8069 29.9548 40.1678 29.6541 40.228 29.1729L40.9498 24.5413C41.0099 24.1203 41.431 23.7594 41.852 23.7594H43.9572C48.3482 23.7594 50.8745 21.6542 51.5361 17.4437C51.897 15.579 51.5963 14.1354 50.7542 13.1129ZM46.664 17.6843C46.3031 20.0903 44.4986 20.0903 42.6941 20.0903H41.6716L42.3933 15.6392C42.4535 15.3986 42.6941 15.158 42.9347 15.158H43.4159C44.6189 15.158 45.7617 15.158 46.3632 15.8196C46.664 16.2407 46.7843 16.8422 46.664 17.6843Z" fill="#8C98A4"/>
<path d="M65.7916 17.6241H62.6037C62.3029 17.6241 62.1225 17.8046 62.0623 18.1053L61.942 19.0076L61.7014 18.7068C61.0398 17.6843 59.4759 17.3835 57.912 17.3835C54.3632 17.3835 51.3557 20.0301 50.8143 23.8196C50.5136 25.6842 50.9346 27.4887 52.0173 28.6917C52.9797 29.8345 54.3632 30.3157 56.0473 30.3157C58.8744 30.3157 60.4383 28.5112 60.4383 28.5112L60.318 29.4135C60.2578 29.7744 60.4984 30.0751 60.8593 30.0751H63.7465C64.2277 30.0751 64.5886 29.7142 64.6488 29.2932L66.3931 18.4061C66.3931 17.9249 66.0923 17.6241 65.7916 17.6241ZM61.3405 23.8196C61.0398 25.6241 59.5962 26.8872 57.7315 26.8872C56.8293 26.8872 56.0473 26.5864 55.5661 26.0451C55.085 25.5038 54.9045 24.6617 55.085 23.8196C55.3857 22.0151 56.8293 20.7519 58.6338 20.7519C59.536 20.7519 60.2578 21.0527 60.739 21.594C61.2804 22.1354 61.4608 22.9173 61.3405 23.8196Z" fill="#8C98A4"/>
<path d="M82.7538 17.624H79.5659C79.2651 17.624 78.9644 17.8045 78.7839 18.0451L74.393 24.5412L72.4682 18.2857C72.3479 17.8646 71.987 17.624 71.5659 17.624H68.4382C68.0773 17.624 67.7765 17.9849 67.8968 18.3458L71.4456 28.6916L68.1374 33.3832C67.8968 33.7441 68.1374 34.2855 68.6186 34.2855H71.8065C72.1073 34.2855 72.408 34.1652 72.5885 33.8644L83.235 18.4661C83.4756 18.1052 83.1748 17.624 82.7538 17.624Z" fill="#8C98A4"/>
<path d="M24.6492 13.3534C24.2883 12.9323 23.8672 12.6316 23.3259 12.3308C23.3259 12.5113 23.2657 12.6917 23.2056 12.8722C23.1454 13.0526 23.1454 13.2331 23.0853 13.3534C21.9424 18.4661 18.6943 20.6315 14.4839 21.1127C14.1831 21.1728 13.9425 21.1728 13.6418 21.1728C13.341 21.1728 12.9801 21.1728 12.6794 21.1728H9.97264C9.31099 21.1728 8.76964 21.654 8.70949 22.2555L7.5065 29.9547L7.32605 30.9772L6.905 33.4434C6.84485 33.8644 7.1456 34.2253 7.56665 34.2253H12.3185C12.8598 34.2253 13.341 33.8043 13.4613 33.2629L13.5215 33.0223L14.4237 27.3682L14.4839 27.0675C14.544 26.5261 15.0252 26.1051 15.6267 26.1051H16.3485C20.98 26.1051 24.5289 24.2405 25.6116 18.827C26.0326 16.5413 25.792 14.6766 24.6492 13.3534Z" fill="#909DA5"/>
<path d="M8.7095 22.3157L8.76965 22.015L10.2734 12.391C10.3335 12.0301 10.5741 11.6692 10.935 11.5489C11.1155 11.4888 11.2358 11.4286 11.4162 11.4286H18.5741C19.4162 11.4286 20.1981 11.4888 20.9199 11.6091C21.1003 11.6692 21.3409 11.6692 21.5214 11.7294C21.7018 11.7895 21.8823 11.8497 22.0627 11.8497C22.1229 11.8497 22.183 11.9098 22.2432 11.9098H22.3033C22.3033 11.9098 22.3033 11.9098 22.3635 11.9098C22.7244 12.0301 23.0251 12.1504 23.3259 12.3309C23.6868 10.0452 23.3259 8.4813 22.0627 7.09785C20.7394 5.53396 18.2733 4.87231 15.1455 4.87231H6.00277C5.34112 4.87231 4.79977 5.35351 4.73962 5.95501L0.890043 30.075C0.829893 30.5562 1.19079 30.9773 1.67199 30.9773H7.32606L7.50651 29.9547L8.7095 22.3157Z" fill="#8C98A4"/>
<path d="M23.3259 12.331C23.0252 12.1505 22.7244 12.0302 22.3635 11.9099C22.3635 11.9099 22.3635 11.9099 22.3034 11.9099H22.2432C22.1831 11.9099 22.1229 11.8498 22.0628 11.8498C21.8823 11.7896 21.7019 11.7295 21.5214 11.7295C21.341 11.6693 21.1004 11.6693 20.9199 11.6092C20.1981 11.4889 19.4162 11.4287 18.5741 11.4287H11.3561C11.1757 11.4287 10.9952 11.4889 10.8749 11.549C10.5742 11.7295 10.2734 12.0302 10.2133 12.3911L8.70953 22.0151V22.3158C8.82983 21.6542 9.37118 21.2331 9.97268 21.2331H12.6794C12.9802 21.2331 13.3411 21.2331 13.6418 21.2331C13.9426 21.2331 14.2433 21.173 14.4839 21.173C18.6944 20.6918 21.9425 18.5264 23.1455 13.4738C23.2056 13.2934 23.2056 13.1731 23.2658 12.9926C23.2658 12.6919 23.3259 12.5114 23.3259 12.331Z" fill="#8C98A4"/>
</g>
</g>
</g>
<defs>
<clipPath id="clip0_326_5889">
<rect width="120.54" height="40" fill="white" transform="translate(0.890015)"/>
</clipPath>
<clipPath id="clip1_326_5889">
<rect width="120.54" height="40" fill="white" transform="translate(0.890015)"/>
</clipPath>
<clipPath id="clip2_326_5889">
<rect width="120.54" height="39.9996" fill="white" transform="translate(0.890015 0.000244141)"/>
</clipPath>
</defs>
</svg>
