<svg width="121" height="40" viewBox="0 0 121 40" fill="none" xmlns="http://www.w3.org/2000/svg">
<g clip-path="url(#clip0_326_5902)">
<g clip-path="url(#clip1_326_5902)">
<g clip-path="url(#clip2_326_5902)">
<path d="M26.4553 9.20314C26.4553 9.02269 26.2748 8.96254 26.1545 8.90239C26.0342 8.90239 23.4478 8.72194 23.4478 8.72194C23.4478 8.72194 21.6433 6.91745 21.4628 6.737C21.2824 6.55655 20.8613 6.6167 20.741 6.6167C20.741 6.6167 20.32 6.737 19.7185 6.91745C19.117 5.17311 18.0944 3.60921 16.2298 3.60921H16.1095C15.5682 2.94757 14.9065 2.58667 14.3652 2.58667C10.0344 2.58667 7.9893 8.00014 7.32765 10.767C5.64346 11.3084 4.44046 11.6693 4.32016 11.6693C3.41792 11.97 3.35777 11.97 3.23747 12.8723C3.11717 13.4738 0.711182 32.4811 0.711182 32.4811L19.7786 36.0299L30.1244 33.8645C30.1244 33.8645 26.5154 9.38359 26.4553 9.20314ZM18.6959 7.27835C18.2147 7.4588 17.6734 7.57909 17.0719 7.75954V7.39865C17.0719 6.31595 16.8915 5.47386 16.6509 4.81221C17.6734 4.87236 18.335 6.0152 18.6959 7.27835ZM15.5682 5.05281C15.8088 5.71445 15.9892 6.67685 15.9892 7.93999V8.12044C14.9667 8.42119 13.8238 8.78209 12.681 9.14299C13.2825 6.67685 14.4855 5.47386 15.5682 5.05281ZM14.2449 3.84981C14.4253 3.84981 14.6058 3.90996 14.7862 4.03026C13.4028 4.69191 11.899 6.31595 11.2975 9.62419C10.3953 9.92493 9.49304 10.1655 8.65094 10.4061C9.43289 7.87984 11.1772 3.84981 14.2449 3.84981Z" fill="#8C98A4"/>
<path d="M26.1545 8.90239C26.0342 8.90239 23.4478 8.72194 23.4478 8.72194C23.4478 8.72194 21.6433 6.91745 21.4628 6.737C21.4027 6.67685 21.2824 6.6167 21.1621 6.6167L19.7185 36.0901L30.1244 33.8645C30.1244 33.8645 26.5154 9.32344 26.4553 9.14299C26.4553 8.96254 26.2748 8.90239 26.1545 8.90239Z" fill="#8C98A4"/>
<path d="M16.2899 14.6165L15.0268 18.406C15.0268 18.406 13.8839 17.8045 12.5606 17.8045C10.5757 17.8045 10.4554 19.0676 10.4554 19.3684C10.4554 21.1127 14.9666 21.7744 14.9666 25.8044C14.9666 28.9923 12.9215 31.0374 10.2148 31.0374C6.96672 31.0374 5.28253 28.9923 5.28253 28.9923L6.12463 26.1051C6.12463 26.1051 7.86897 27.6089 9.31256 27.6089C10.275 27.6089 10.6359 26.8871 10.6359 26.2856C10.6359 23.9999 6.90657 23.9397 6.90657 20.2105C6.90657 17.0827 9.13211 14.0752 13.7035 14.0752C15.4478 14.0752 16.2899 14.6165 16.2899 14.6165Z" fill="white"/>
<path d="M42.2145 21.7143C41.1919 21.173 40.6506 20.6918 40.6506 20.0301C40.6506 19.188 41.3724 18.6467 42.5754 18.6467C43.8987 18.6467 45.1017 19.188 45.1017 19.188L46.0641 16.3009C46.0641 16.3009 45.222 15.6392 42.6355 15.6392C39.0867 15.6392 36.6206 17.6843 36.6206 20.5113C36.6206 22.1354 37.7634 23.3985 39.3273 24.2406C40.5904 24.9624 41.0115 25.4436 41.0115 26.1654C41.0115 26.9473 40.41 27.5488 39.207 27.5488C37.4627 27.5488 35.8988 26.6466 35.8988 26.6466L34.8762 29.5338C34.8762 29.5338 36.38 30.5563 38.9063 30.5563C42.5754 30.5563 45.1618 28.7518 45.1618 25.5038C45.1017 23.8797 43.7784 22.6767 42.2145 21.7143ZM56.7707 15.6994C54.9662 15.6994 53.5828 16.5415 52.4399 17.8647H52.3798L53.9437 9.62423H49.8535L45.8836 30.436H49.9738L51.3572 23.3384C51.8986 20.6316 53.282 19.0076 54.5452 19.0076C55.4474 19.0076 55.8083 19.6091 55.8083 20.5113C55.8083 21.0527 55.7482 21.7745 55.6279 22.3158L54.064 30.436H58.2143L59.8383 22.0151C60.0188 21.1128 60.1391 20.0903 60.1391 19.3685C60.0789 17.0828 58.876 15.6994 56.7707 15.6994ZM69.2819 15.6994C64.4097 15.6994 61.1616 20.1504 61.1616 25.0226C61.1616 28.2105 63.0864 30.7368 66.7556 30.7368C71.5675 30.7368 74.8156 26.406 74.8156 21.4136C74.8156 18.4061 73.0713 15.6994 69.2819 15.6994ZM67.2969 27.5488C65.9135 27.5488 65.312 26.3459 65.312 24.9023C65.312 22.5564 66.515 18.767 68.7405 18.767C70.1841 18.767 70.6653 20.0301 70.6653 21.2331C70.6051 23.6993 69.4022 27.5488 67.2969 27.5488ZM85.2215 15.6994C82.4546 15.6994 80.8908 18.1053 80.8908 18.1053H80.8306L81.0712 15.94H77.4622C77.2818 17.4437 76.981 19.6692 76.6201 21.3534L73.8532 36.2104H77.8833L79.0261 30.1954H79.0863C79.0863 30.1954 79.9284 30.7368 81.4922 30.7368C86.2441 30.7368 89.3719 25.8647 89.3719 20.8722C89.3719 18.1053 88.1689 15.6994 85.2215 15.6994ZM81.3118 27.5488C80.2291 27.5488 79.6276 26.9473 79.6276 26.9473L80.2893 23.1579C80.7705 20.6316 82.0937 18.9474 83.4772 18.9474C84.7403 18.9474 85.1012 20.0903 85.1012 21.173C85.1614 23.8797 83.5975 27.5488 81.3118 27.5488ZM95.2064 9.80468C93.8831 9.80468 92.8605 10.8272 92.8605 12.1505C92.8605 13.3535 93.6425 14.1956 94.7853 14.1956H94.8455C96.1086 14.1956 97.1913 13.3535 97.2515 11.8498C97.2515 10.7069 96.4094 9.80468 95.2064 9.80468ZM89.4921 30.3157H93.5823L96.3492 15.8798H92.259M106.695 16.0001H103.868L103.988 15.3385C104.229 13.955 105.071 12.6919 106.394 12.6919C107.116 12.6919 107.718 12.8723 107.718 12.8723L108.499 9.68438C108.499 9.68438 107.778 9.32349 106.274 9.32349C104.83 9.32349 103.387 9.74453 102.304 10.7069C100.921 11.9099 100.259 13.5941 99.9582 15.2783L99.8379 15.94H97.9131L97.3116 19.0076H99.2364L97.071 30.3157H101.161L103.327 18.9474H106.154L106.695 16.0001ZM116.439 16.0001C116.439 16.0001 113.913 22.4361 112.77 25.9248H112.71C112.65 24.782 111.687 16.0001 111.687 16.0001H107.417L109.883 29.233C109.943 29.5338 109.883 29.7142 109.823 29.8947C109.342 30.7969 108.56 31.6992 107.597 32.3608C106.815 32.9022 105.973 33.2631 105.312 33.5037L106.454 36.9322C107.296 36.7518 108.981 36.0901 110.424 34.7067C112.289 32.9623 113.973 30.2556 115.778 26.6466L120.77 16.0001H116.439Z" fill="#8C98A4"/>
</g>
</g>
</g>
<defs>
<clipPath id="clip0_326_5902">
<rect width="120.54" height="40" fill="white" transform="translate(0.22998)"/>
</clipPath>
<clipPath id="clip1_326_5902">
<rect width="120.54" height="40" fill="white" transform="translate(0.22998)"/>
</clipPath>
<clipPath id="clip2_326_5902">
<rect width="120.54" height="39.9996" fill="white" transform="translate(0.22998 0.000244141)"/>
</clipPath>
</defs>
</svg>
