<svg width="122" height="40" viewBox="0 0 122 40" fill="none" xmlns="http://www.w3.org/2000/svg">
<g clip-path="url(#clip0_326_5910)">
<g clip-path="url(#clip1_326_5910)">
<g clip-path="url(#clip2_326_5910)">
<path d="M18.595 1.68433C8.61011 1.68433 0.550049 9.74439 0.550049 19.7292C0.550049 29.7141 8.61011 37.7741 18.595 37.7741C28.5798 37.7741 36.6399 29.7141 36.6399 19.7292C36.6399 9.74439 28.5798 1.68433 18.595 1.68433ZM26.8956 27.7291C26.5949 28.2705 25.8731 28.4509 25.3317 28.09C21.1212 25.5036 15.7679 24.9021 9.4522 26.3457C8.85071 26.466 8.24921 26.1051 8.12891 25.5036C8.00861 24.9021 8.36951 24.3006 8.97101 24.1803C15.8281 22.6164 21.7227 23.2781 26.4746 26.1653C27.0159 26.466 27.1964 27.1878 26.8956 27.7291ZM29.061 22.7969C28.64 23.4585 27.7979 23.639 27.1362 23.2781C22.2641 20.2706 14.8657 19.4285 9.15146 21.1728C8.42966 21.4134 7.64771 20.9924 7.40711 20.2104C7.16652 19.4886 7.58756 18.7067 8.36951 18.4661C14.9258 16.4812 23.046 17.4435 28.64 20.8721C29.3016 21.2931 29.4821 22.1352 29.061 22.7969ZM29.3016 17.6841C23.4671 14.2556 13.9033 13.8947 8.30936 15.5789C7.40711 15.8195 6.44472 15.3383 6.20412 14.4361C5.96352 13.5338 6.44472 12.6316 7.34696 12.3308C13.7228 10.406 24.3092 10.7669 30.9858 14.7368C31.7677 15.218 32.0685 16.2406 31.5873 17.0225C31.1061 17.8646 30.0836 18.1653 29.3016 17.6841ZM49.6322 18.3458C46.5044 17.624 45.9631 17.0827 45.9631 16C45.9631 14.9774 46.9255 14.2556 48.3691 14.2556C49.7525 14.2556 51.1961 14.797 52.6397 15.8797C52.6998 15.9398 52.76 15.9398 52.8201 15.9398C52.8803 15.9398 52.9404 15.8797 52.9404 15.8797L54.4442 13.7143C54.5043 13.6541 54.5043 13.5338 54.384 13.4135C52.6397 12.0301 50.7149 11.3684 48.4292 11.3684C45.0608 11.3684 42.715 13.4135 42.715 16.3007C42.715 19.3683 44.7601 20.5112 48.2488 21.3533C51.2562 22.0149 51.7374 22.6164 51.7374 23.639C51.7374 24.7818 50.7149 25.5036 49.0909 25.5036C47.2864 25.5036 45.7826 24.9021 44.0984 23.4585C44.0984 23.3382 44.0383 23.3382 43.9781 23.3382C43.918 23.3382 43.8578 23.3984 43.8578 23.3984L42.1736 25.4435C42.1135 25.5036 42.1135 25.6841 42.1736 25.7442C44.0984 27.4885 46.5044 28.3908 49.0307 28.3908C52.6397 28.3908 54.9855 26.4059 54.9855 23.3382C54.9855 20.6916 53.4818 19.248 49.6322 18.3458ZM63.226 15.2782C61.6621 15.2782 60.3388 15.8797 59.3163 17.1428V15.6992C59.3163 15.5789 59.196 15.5188 59.1359 15.5188H56.369C56.2487 15.5188 56.1885 15.6391 56.1885 15.6992V31.5787C56.1885 31.699 56.3088 31.7592 56.369 31.7592H59.0757C59.196 31.7592 59.2562 31.6389 59.2562 31.5787V26.5863C60.3388 27.7893 61.602 28.3908 63.1659 28.3908C66.1132 28.3908 69.0606 26.1653 69.0606 21.8345C69.0606 17.5037 66.1132 15.2782 63.226 15.2782ZM65.8125 21.8345C65.8125 23.9999 64.4892 25.5638 62.5644 25.5638C60.6396 25.5638 59.196 23.9397 59.196 21.8345C59.196 19.7292 60.6396 18.1052 62.5644 18.1052C64.429 18.1052 65.8125 19.6691 65.8125 21.8345ZM76.6394 15.2782C72.85 15.2782 69.9628 18.1653 69.9628 21.8946C69.9628 25.5638 72.9101 28.3908 76.6394 28.3908C80.4288 28.3908 83.3762 25.5036 83.3762 21.8345C83.316 18.1653 80.3687 15.2782 76.6394 15.2782ZM76.6394 25.5638C74.6545 25.5638 73.1507 23.9397 73.1507 21.8345C73.1507 19.6691 74.5943 18.1653 76.6394 18.1653C78.6244 18.1653 80.1882 19.7894 80.1882 21.8946C80.1281 23.9999 78.6845 25.5638 76.6394 25.5638ZM91.3761 15.5188H88.3085V12.391C88.3085 12.2707 88.1882 12.2105 88.128 12.2105H85.3611C85.2408 12.2105 85.1807 12.3308 85.1807 12.391V15.5188H83.7371C83.6168 15.5188 83.5566 15.6391 83.5566 15.6992V18.1052C83.5566 18.2255 83.6769 18.2856 83.7371 18.2856H85.0604V24.5412C85.0604 27.0675 86.3235 28.3306 88.7897 28.3306C89.8122 28.3306 90.5941 28.1502 91.3761 27.669C91.4362 27.6088 91.4964 27.5487 91.4964 27.4885V25.2029C91.4964 25.1427 91.4362 25.0826 91.3761 25.0224C91.3159 24.9623 91.2558 24.9623 91.1956 25.0224C90.6543 25.263 90.113 25.4435 89.5716 25.4435C88.6694 25.4435 88.2483 25.0224 88.2483 24.1202V18.3458H91.3159C91.4362 18.3458 91.4964 18.2255 91.4964 18.1653V15.7594C91.5565 15.6391 91.4964 15.5188 91.3761 15.5188ZM102.083 15.5188V15.1579C102.083 14.015 102.504 13.5338 103.466 13.5338C104.068 13.5338 104.489 13.6541 105.03 13.8346C105.09 13.8346 105.15 13.8346 105.211 13.8346C105.271 13.7744 105.271 13.7143 105.271 13.6541V11.3083C105.271 11.2481 105.211 11.1278 105.15 11.1278C104.609 10.9474 103.887 10.7669 102.805 10.7669C100.218 10.7669 98.8948 12.2105 98.8948 14.9774V15.5789H97.5715C97.4512 15.5789 97.3911 15.6992 97.3911 15.7594V18.1653C97.3911 18.2856 97.5114 18.3458 97.5715 18.3458H98.8948V27.9096C98.8948 28.0299 99.0151 28.09 99.0753 28.09H101.842C101.962 28.09 102.023 27.9697 102.023 27.9096V18.3458H104.609L108.579 27.9096C108.098 28.9321 107.677 29.1126 107.075 29.1126C106.594 29.1126 106.053 28.9923 105.511 28.6915C105.451 28.6915 105.391 28.6314 105.331 28.6915C105.271 28.6915 105.211 28.7517 105.211 28.8118L104.248 30.8569C104.188 30.9772 104.248 31.0975 104.308 31.0975C105.271 31.6389 106.173 31.8795 107.316 31.8795C109.361 31.8795 110.504 30.9171 111.526 28.3306L116.338 15.8195C116.338 15.7594 116.338 15.6992 116.338 15.6391C116.278 15.5789 116.218 15.5789 116.158 15.5789H113.271C113.21 15.5789 113.09 15.6391 113.09 15.6992L110.143 24.1803L106.895 15.6992C106.835 15.6391 106.774 15.5789 106.714 15.5789L102.083 15.5188ZM95.8272 15.5188H93.0603C92.94 15.5188 92.8798 15.6391 92.8798 15.6992V27.8494C92.8798 27.9697 93.0001 28.0299 93.0603 28.0299H95.8272C95.9475 28.0299 96.0076 27.9096 96.0076 27.8494V15.7594C96.0678 15.6391 95.9475 15.5188 95.8272 15.5188ZM94.5039 9.98498C93.4212 9.98498 92.5189 10.8872 92.5189 11.9699C92.5189 13.0526 93.4212 13.9549 94.5039 13.9549C95.5866 13.9549 96.4888 13.0526 96.4888 11.9699C96.4888 10.8872 95.5866 9.98498 94.5039 9.98498ZM118.925 19.4285C117.842 19.4285 116.94 18.5262 116.94 17.4435C116.94 16.3609 117.782 15.4586 118.925 15.4586C120.068 15.4586 120.91 16.3609 120.91 17.4435C120.91 18.5262 120.007 19.4285 118.925 19.4285ZM118.925 15.6992C117.902 15.6992 117.18 16.4812 117.18 17.5037C117.18 18.4661 117.962 19.248 118.925 19.248C119.947 19.248 120.669 18.4661 120.669 17.4435C120.669 16.4812 119.947 15.6992 118.925 15.6992ZM119.346 17.6841L119.887 18.4661H119.406L118.925 17.7443H118.504V18.4661H118.083V16.421H118.985C119.466 16.421 119.767 16.6616 119.767 17.0826C119.827 17.3834 119.646 17.5638 119.346 17.6841ZM119.045 16.7218H118.564V17.3834H119.045C119.286 17.3834 119.466 17.2631 119.466 17.0826C119.406 16.8421 119.286 16.7218 119.045 16.7218Z" fill="#8C98A4"/>
</g>
</g>
</g>
<defs>
<clipPath id="clip0_326_5910">
<rect width="120.54" height="40" fill="white" transform="translate(0.550049)"/>
</clipPath>
<clipPath id="clip1_326_5910">
<rect width="120.54" height="40" fill="white" transform="translate(0.550049)"/>
</clipPath>
<clipPath id="clip2_326_5910">
<rect width="120.54" height="39.9996" fill="white" transform="translate(0.550049 0.000244141)"/>
</clipPath>
</defs>
</svg>
