<svg width="48" height="49" viewBox="0 0 48 49" fill="none" xmlns="http://www.w3.org/2000/svg">
<mask id="path-1-inside-1_326_5931" fill="white">
<path d="M0 24.75C0 11.4952 10.7452 0.75 24 0.75C37.2548 0.75 48 11.4952 48 24.75C48 38.0048 37.2548 48.75 24 48.75C10.7452 48.75 0 38.0048 0 24.75Z"/>
</mask>
<path d="M0 24.75C0 11.4952 10.7452 0.75 24 0.75C37.2548 0.75 48 11.4952 48 24.75C48 38.0048 37.2548 48.75 24 48.75C10.7452 48.75 0 38.0048 0 24.75Z" fill="#FC2828" fill-opacity="0.1"/>
<path d="M24 48.25C23.535 48.25 23.0733 48.2365 22.6151 48.2099L22.5571 49.2082C23.0346 49.2359 23.5157 49.25 24 49.25V48.25ZM20.7778 48.031C19.855 47.9045 18.9495 47.7244 18.0643 47.4941L17.8124 48.4618C18.7356 48.7021 19.6799 48.8898 20.6419 49.0217L20.7778 48.031ZM16.2979 46.9589C15.4214 46.655 14.5685 46.3006 13.7425 45.8993L13.3055 46.7987C14.1667 47.2172 15.0562 47.5867 15.9703 47.9037L16.2979 46.9589ZM12.1156 45.0279C11.3179 44.5593 10.5502 44.045 9.81617 43.4885L9.21203 44.2854C9.97716 44.8654 10.7775 45.4016 11.6092 45.8902L12.1156 45.0279ZM8.39012 42.3168C7.70021 41.7033 7.04667 41.0498 6.43316 40.3599L5.68589 41.0244C6.32534 41.7435 7.00651 42.4247 7.7256 43.0641L8.39012 42.3168ZM5.2615 38.9338C4.70501 38.1998 4.19068 37.4321 3.72211 36.6344L2.85985 37.1408C3.34837 37.9725 3.88455 38.7728 4.46463 39.538L5.2615 38.9338ZM2.85073 35.0075C2.44939 34.1815 2.09503 33.3286 1.7911 32.4521L0.846292 32.7797C1.16325 33.6938 1.5328 34.5833 1.9513 35.4445L2.85073 35.0075ZM1.25595 30.6857C1.02558 29.8005 0.845528 28.895 0.719026 27.9722L-0.271707 28.1081C-0.139816 29.0701 0.0479335 30.0144 0.288179 30.9376L1.25595 30.6857ZM0.540116 26.1349C0.513498 25.6767 0.5 25.215 0.5 24.75H-0.5C-0.5 25.2343 -0.48594 25.7154 -0.4582 26.1929L0.540116 26.1349ZM0.5 24.75C0.5 24.285 0.513498 23.8233 0.540116 23.3651L-0.4582 23.3071C-0.48594 23.7846 -0.5 24.2657 -0.5 24.75H0.5ZM0.719026 21.5278C0.845528 20.605 1.02558 19.6995 1.25595 18.8143L0.288179 18.5624C0.0479335 19.4856 -0.139817 20.4299 -0.271707 21.3919L0.719026 21.5278ZM1.7911 17.0479C2.09503 16.1714 2.44939 15.3185 2.85073 14.4925L1.9513 14.0555C1.5328 14.9167 1.16325 15.8062 0.846293 16.7203L1.7911 17.0479ZM3.72211 12.8656C4.19068 12.0679 4.70501 11.3002 5.2615 10.5662L4.46463 9.96203C3.88455 10.7272 3.34837 11.5275 2.85985 12.3592L3.72211 12.8656ZM6.43316 9.14012C7.04667 8.45021 7.70021 7.79667 8.39012 7.18316L7.72561 6.43589C7.00652 7.07534 6.32535 7.75651 5.68589 8.4756L6.43316 9.14012ZM9.81617 6.0115C10.5502 5.45501 11.3179 4.94068 12.1156 4.47211L11.6092 3.60985C10.7775 4.09837 9.97716 4.63455 9.21203 5.21463L9.81617 6.0115ZM13.7425 3.60073C14.5685 3.19939 15.4214 2.84503 16.2979 2.5411L15.9703 1.59629C15.0562 1.91325 14.1667 2.2828 13.3055 2.7013L13.7425 3.60073ZM18.0643 2.00595C18.9495 1.77558 19.855 1.59553 20.7778 1.46903L20.6419 0.478293C19.6799 0.610184 18.7356 0.797934 17.8124 1.03818L18.0643 2.00595ZM22.6151 1.29012C23.0733 1.2635 23.535 1.25 24 1.25V0.25C23.5157 0.25 23.0346 0.26406 22.5571 0.2918L22.6151 1.29012ZM24 1.25C24.465 1.25 24.9267 1.2635 25.3849 1.29012L25.4429 0.2918C24.9654 0.26406 24.4843 0.25 24 0.25V1.25ZM27.2222 1.46903C28.145 1.59553 29.0505 1.77558 29.9357 2.00595L30.1876 1.03818C29.2644 0.797933 28.3201 0.610183 27.3581 0.478293L27.2222 1.46903ZM31.7021 2.5411C32.5786 2.84503 33.4315 3.19939 34.2575 3.60073L34.6945 2.7013C33.8333 2.2828 32.9438 1.91325 32.0297 1.59629L31.7021 2.5411ZM35.8844 4.47211C36.6821 4.94068 37.4498 5.45501 38.1838 6.0115L38.788 5.21463C38.0228 4.63455 37.2225 4.09837 36.3908 3.60985L35.8844 4.47211ZM39.6099 7.18316C40.2998 7.79667 40.9533 8.45021 41.5668 9.14012L42.3141 8.47561C41.6747 7.75652 40.9935 7.07535 40.2744 6.43589L39.6099 7.18316ZM42.7385 10.5662C43.295 11.3002 43.8093 12.0679 44.2779 12.8656L45.1402 12.3592C44.6516 11.5275 44.1154 10.7272 43.5354 9.96203L42.7385 10.5662ZM45.1493 14.4925C45.5506 15.3185 45.905 16.1714 46.2089 17.0479L47.1537 16.7203C46.8367 15.8062 46.4672 14.9167 46.0487 14.0555L45.1493 14.4925ZM46.7441 18.8143C46.9744 19.6995 47.1545 20.605 47.281 21.5278L48.2717 21.3919C48.1398 20.4299 47.9521 19.4856 47.7118 18.5624L46.7441 18.8143ZM47.4599 23.3651C47.4865 23.8233 47.5 24.285 47.5 24.75H48.5C48.5 24.2657 48.4859 23.7846 48.4582 23.3071L47.4599 23.3651ZM47.5 24.75C47.5 25.215 47.4865 25.6767 47.4599 26.1349L48.4582 26.1929C48.4859 25.7154 48.5 25.2343 48.5 24.75H47.5ZM47.281 27.9722C47.1545 28.895 46.9744 29.8005 46.7441 30.6857L47.7118 30.9376C47.9521 30.0144 48.1398 29.0701 48.2717 28.1081L47.281 27.9722ZM46.2089 32.4521C45.905 33.3286 45.5506 34.1815 45.1493 35.0075L46.0487 35.4445C46.4672 34.5833 46.8367 33.6938 47.1537 32.7797L46.2089 32.4521ZM44.2779 36.6344C43.8093 37.4321 43.295 38.1998 42.7385 38.9338L43.5354 39.538C44.1154 38.7728 44.6516 37.9725 45.1402 37.1408L44.2779 36.6344ZM41.5668 40.3599C40.9533 41.0498 40.2998 41.7033 39.6099 42.3168L40.2744 43.0641C40.9935 42.4247 41.6747 41.7435 42.3141 41.0244L41.5668 40.3599ZM38.1838 43.4885C37.4498 44.045 36.6821 44.5593 35.8844 45.0279L36.3908 45.8902C37.2225 45.4016 38.0228 44.8654 38.788 44.2854L38.1838 43.4885ZM34.2575 45.8993C33.4315 46.3006 32.5786 46.655 31.7021 46.9589L32.0297 47.9037C32.9438 47.5867 33.8333 47.2172 34.6945 46.7987L34.2575 45.8993ZM29.9357 47.4941C29.0505 47.7244 28.145 47.9045 27.2222 48.031L27.3581 49.0217C28.3201 48.8898 29.2644 48.7021 30.1876 48.4618L29.9357 47.4941ZM25.3849 48.2099C24.9267 48.2365 24.465 48.25 24 48.25V49.25C24.4843 49.25 24.9654 49.2359 25.4429 49.2082L25.3849 48.2099ZM24 47.75C23.5447 47.75 23.0926 47.7368 22.6441 47.7107L22.5281 49.7074C23.0152 49.7357 23.506 49.75 24 49.75V47.75ZM20.8457 47.5356C19.9426 47.4118 19.0564 47.2356 18.1902 47.0102L17.6865 48.9457C18.6287 49.1909 19.5923 49.3825 20.574 49.5171L20.8457 47.5356ZM16.4617 46.4865C15.604 46.1891 14.7694 45.8423 13.9611 45.4495L13.0869 47.2484C13.9658 47.6755 14.8736 48.0526 15.8065 48.3761L16.4617 46.4865ZM12.3689 44.5968C11.5881 44.1382 10.8367 43.6348 10.1182 43.0901L8.90996 44.6838C9.69064 45.2757 10.5072 45.8228 11.3559 46.3213L12.3689 44.5968ZM8.72238 41.9432C8.04705 41.3427 7.40733 40.7029 6.8068 40.0276L5.31225 41.3567C5.96468 42.0903 6.65967 42.7853 7.39335 43.4377L8.72238 41.9432ZM5.65994 38.6318C5.11524 37.9133 4.61183 37.1619 4.15324 36.3811L2.42871 37.3941C2.92722 38.2428 3.47432 39.0594 4.06619 39.84L5.65994 38.6318ZM3.30045 34.7889C2.90769 33.9806 2.56091 33.146 2.26351 32.2883L0.373887 32.9435C0.697368 33.8764 1.07451 34.7841 1.50158 35.663L3.30045 34.7889ZM1.73983 30.5598C1.51441 29.6936 1.3382 28.8074 1.21439 27.9043L-0.767073 28.176C-0.632488 29.1577 -0.440892 30.1213 -0.195705 31.0635L1.73983 30.5598ZM1.03927 26.1059C1.01322 25.6574 1 25.2053 1 24.75H-1C-1 25.244 -0.985659 25.7348 -0.957359 26.2219L1.03927 26.1059ZM1 24.75C1 24.2947 1.01322 23.8426 1.03927 23.3941L-0.957359 23.2781C-0.985659 23.7652 -1 24.256 -1 24.75H1ZM1.21439 21.5957C1.3382 20.6926 1.51441 19.8064 1.73983 18.9402L-0.195705 18.4365C-0.440892 19.3787 -0.632489 20.3423 -0.767073 21.324L1.21439 21.5957ZM2.26351 17.2117C2.56091 16.354 2.90769 15.5194 3.30045 14.7111L1.50158 13.8369C1.07451 14.7158 0.697368 15.6236 0.373887 16.5565L2.26351 17.2117ZM4.15324 13.1189C4.61183 12.3381 5.11524 11.5867 5.65994 10.8682L4.06619 9.65996C3.47432 10.4406 2.92722 11.2572 2.42872 12.1059L4.15324 13.1189ZM6.8068 9.47238C7.40734 8.79705 8.04706 8.15733 8.72238 7.5568L7.39335 6.06225C6.65967 6.71468 5.96468 7.40967 5.31225 8.14335L6.8068 9.47238ZM10.1182 6.40994C10.8367 5.86524 11.5881 5.36183 12.3689 4.90324L11.3559 3.17871C10.5072 3.67722 9.69064 4.22432 8.90996 4.81619L10.1182 6.40994ZM13.9611 4.05045C14.7694 3.65769 15.604 3.31091 16.4617 3.01351L15.8065 1.12389C14.8736 1.44737 13.9658 1.82451 13.087 2.25158L13.9611 4.05045ZM18.1902 2.48983C19.0564 2.26441 19.9426 2.0882 20.8457 1.96439L20.574 -0.017073C19.5923 0.117512 18.6287 0.309108 17.6865 0.554295L18.1902 2.48983ZM22.6441 1.78927C23.0926 1.76322 23.5447 1.75 24 1.75V-0.25C23.506 -0.25 23.0152 -0.235659 22.5281 -0.207359L22.6441 1.78927ZM24 1.75C24.4553 1.75 24.9074 1.76322 25.3559 1.78927L25.4719 -0.207359C24.9848 -0.235659 24.494 -0.25 24 -0.25V1.75ZM27.1543 1.96439C28.0574 2.0882 28.9436 2.26441 29.8098 2.48983L30.3135 0.554295C29.3713 0.309108 28.4077 0.117511 27.426 -0.0170732L27.1543 1.96439ZM31.5383 3.01351C32.396 3.31091 33.2306 3.65769 34.0389 4.05045L34.9131 2.25158C34.0342 1.82451 33.1264 1.44737 32.1935 1.12389L31.5383 3.01351ZM35.6311 4.90324C36.4119 5.36183 37.1633 5.86524 37.8818 6.40994L39.09 4.81619C38.3094 4.22432 37.4928 3.67722 36.6441 3.17872L35.6311 4.90324ZM39.2776 7.5568C39.9529 8.15734 40.5927 8.79706 41.1932 9.47238L42.6877 8.14335C42.0353 7.40967 41.3403 6.71468 40.6067 6.06225L39.2776 7.5568ZM42.3401 10.8682C42.8848 11.5867 43.3882 12.3381 43.8468 13.1189L45.5713 12.1059C45.0728 11.2572 44.5257 10.4406 43.9338 9.65996L42.3401 10.8682ZM44.6996 14.7111C45.0923 15.5194 45.4391 16.354 45.7365 17.2117L47.6261 16.5565C47.3026 15.6236 46.9255 14.7158 46.4984 13.837L44.6996 14.7111ZM46.2602 18.9402C46.4856 19.8064 46.6618 20.6926 46.7856 21.5957L48.7671 21.324C48.6325 20.3423 48.4409 19.3787 48.1957 18.4365L46.2602 18.9402ZM46.9607 23.3941C46.9868 23.8426 47 24.2947 47 24.75H49C49 24.256 48.9857 23.7652 48.9574 23.2781L46.9607 23.3941ZM47 24.75C47 25.2053 46.9868 25.6574 46.9607 26.1059L48.9574 26.2219C48.9857 25.7348 49 25.244 49 24.75H47ZM46.7856 27.9043C46.6618 28.8074 46.4856 29.6936 46.2602 30.5598L48.1957 31.0635C48.4409 30.1213 48.6325 29.1577 48.7671 28.176L46.7856 27.9043ZM45.7365 32.2883C45.4391 33.146 45.0923 33.9806 44.6995 34.7889L46.4984 35.6631C46.9255 34.7842 47.3026 33.8764 47.6261 32.9435L45.7365 32.2883ZM43.8468 36.3811C43.3882 37.1619 42.8848 37.9133 42.3401 38.6318L43.9338 39.84C44.5257 39.0594 45.0728 38.2428 45.5713 37.3941L43.8468 36.3811ZM41.1932 40.0276C40.5927 40.7029 39.9529 41.3427 39.2776 41.9432L40.6067 43.4377C41.3403 42.7853 42.0353 42.0903 42.6877 41.3567L41.1932 40.0276ZM37.8818 43.0901C37.1633 43.6348 36.4119 44.1382 35.6311 44.5968L36.6441 46.3213C37.4928 45.8228 38.3094 45.2757 39.09 44.6838L37.8818 43.0901ZM34.0389 45.4496C33.2306 45.8423 32.396 46.1891 31.5383 46.4865L32.1935 48.3761C33.1264 48.0526 34.0341 47.6755 34.913 47.2484L34.0389 45.4496ZM29.8098 47.0102C28.9436 47.2356 28.0574 47.4118 27.1543 47.5356L27.426 49.5171C28.4077 49.3825 29.3713 49.1909 30.3135 48.9457L29.8098 47.0102ZM25.3559 47.7107C24.9074 47.7368 24.4553 47.75 24 47.75V49.75C24.494 49.75 24.9848 49.7357 25.4719 49.7074L25.3559 47.7107Z" fill="#FC2828" fill-opacity="0.46" mask="url(#path-1-inside-1_326_5931)"/>
<path d="M28.02 24.75L33.5 27.88C33.6539 27.9672 33.7819 28.0937 33.871 28.2465C33.96 28.3994 34.0069 28.5731 34.0069 28.75C34.0069 28.9269 33.96 29.1006 33.871 29.2535C33.7819 29.4063 33.6539 29.5328 33.5 29.62L25 34.49C24.696 34.6655 24.3511 34.7579 24 34.7579C23.6489 34.7579 23.304 34.6655 23 34.49L14.5 29.62C14.3461 29.5328 14.2181 29.4063 14.129 29.2535C14.04 29.1006 13.993 28.9269 13.993 28.75C13.993 28.5731 14.04 28.3994 14.129 28.2465C14.2181 28.0937 14.3461 27.9672 14.5 27.88L19.98 24.75" stroke="#FC2828" stroke-width="2" stroke-linecap="round" stroke-linejoin="round"/>
<path d="M25 26.4899C24.696 26.6654 24.3511 26.7578 24 26.7578C23.6489 26.7578 23.304 26.6654 23 26.4899L14.5 21.6199C14.3461 21.5327 14.2181 21.4062 14.129 21.2534C14.04 21.1005 13.993 20.9268 13.993 20.7499C13.993 20.573 14.04 20.3993 14.129 20.2464C14.2181 20.0936 14.3461 19.9671 14.5 19.8799L23 15.0099C23.304 14.8344 23.6489 14.7419 24 14.7419C24.3511 14.7419 24.696 14.8344 25 15.0099L33.5 19.8799C33.6539 19.9671 33.7819 20.0936 33.871 20.2464C33.96 20.3993 34.0069 20.573 34.0069 20.7499C34.0069 20.9268 33.96 21.1005 33.871 21.2534C33.7819 21.4062 33.6539 21.5327 33.5 21.6199L25 26.4899Z" stroke="#FC2828" stroke-width="2" stroke-linecap="round" stroke-linejoin="round"/>
</svg>
