<svg width="33" height="33" viewBox="0 0 33 33" fill="none" xmlns="http://www.w3.org/2000/svg">
<path d="M13.046 23.8801C19.084 23.8801 22.387 18.8771 22.387 14.5461C22.387 14.4061 22.387 14.2641 22.381 14.1241C23.0241 13.6586 23.5791 13.0822 24.02 12.4221C23.4193 12.6869 22.7828 12.8615 22.131 12.9401C22.8176 12.5297 23.3317 11.8841 23.578 11.1231C22.933 11.5052 22.227 11.7735 21.491 11.9161C20.9962 11.3891 20.3414 11.04 19.6281 10.9228C18.9148 10.8057 18.1827 10.927 17.5454 11.268C16.908 11.609 16.4008 12.1507 16.1025 12.8091C15.8041 13.4676 15.7312 14.206 15.895 14.9101C14.5898 14.8446 13.3128 14.5056 12.1471 13.9148C10.9813 13.3241 9.9527 12.4949 9.12802 11.4811C8.70936 12.2042 8.58159 13.0595 8.77067 13.8734C8.95974 14.6872 9.45147 15.3986 10.146 15.8631C9.62556 15.8454 9.11654 15.7056 8.66002 15.4551V15.5001C8.66092 16.2576 8.92333 16.9915 9.40289 17.5778C9.88246 18.1642 10.5498 18.567 11.292 18.7181C11.0103 18.7957 10.7192 18.8344 10.427 18.8331C10.221 18.8337 10.0154 18.8146 9.81302 18.7761C10.0228 19.4281 10.4313 19.9983 10.9813 20.4066C11.5312 20.8149 12.1952 21.0409 12.88 21.0531C11.7166 21.9669 10.2794 22.4625 8.80002 22.4601C8.53934 22.4612 8.27884 22.4462 8.02002 22.4151C9.52153 23.3724 11.2653 23.8806 13.046 23.8801Z" fill="white"/>
</svg>
